<?xml version="1.0" encoding="UTF-8" standalone="no"?>
<!-- Created with Inkscape (http://www.inkscape.org/) -->

<svg
   width="1000.0789"
   height="240.07285"
   id="svg6778"
   version="1.1"
   viewBox="0 0 1000.0789 240.07285"
   xmlns="http://www.w3.org/2000/svg"
   xmlns:svg="http://www.w3.org/2000/svg">
  <defs
     id="defs6780" />
  <metadata
     id="metadata6783" />
  <path
     d="M 355.8749,93.93553 C 378.3302,93.93553 393.8889,104.77887 400.4739,121.72938 L 382.2978,131.47177 C 377.7693,133.90218 372.4307,131.88723 368.8163,128.25201 364.6617,124.03515 359.1778,121.72938 351.9489,121.72938 333.7312,121.72938 319.128,138.84608 319.128,157.99849 319.128,171.97851 328.3926,180.61995 341.1055,180.61995 347.5243,180.61995 352.7175,178.79195 357.5783,175.4891 361.8367,172.58092 367.7984,172.22778 371.6414,175.6345 L 385.2475,187.68266 C 374.5703,199.77237 360.1125,208.26839 339.236,208.26839 308.7624,208.26839 287.2419,189.57298 287.2419,160.2004 287.2419,127.69114 313.6233,93.93553 355.8749,93.93553"
     id="path13082"
     style="fill:#ff5a19" />
  <path
     d="M 447.1356,96.13536 C 449.5452,96.13536 450.9785,98.02567 450.3554,100.35222 L 440.3429,137.28605 H 479.1463 L 490.1351,96.13536 H 516.3917 C 518.8014,96.13536 520.2555,98.02567 519.6115,100.35222 L 491.236,206.06441 H 464.9793 C 462.5697,206.06441 461.1156,204.1741 461.7388,201.84756 L 471.9174,164.29054 H 433.1348 L 421.9799,206.06441 H 395.7232 C 393.3136,206.06441 391.8595,204.1741 392.4827,201.84756 L 420.8789,96.13536 Z"
     id="path13086"
     style="fill:#ff5a19" />
  <path
     d="M 800.6036,100.34806 779.4362,179.36736 H 831.8873 L 825.8009,201.8434 C 825.1777,204.16994 822.7057,206.06026 820.2961,206.06026 H 745.9507 C 743.541,206.06026 742.0869,204.16994 742.7101,201.8434 L 771.1064,96.1312 H 797.3631 C 799.7727,96.1312 801.2268,98.02152 800.6036,100.34806"
     id="path13090"
     style="fill:#ff5a19" />
  <path
     d="M 888.792,96.13536 C 891.2016,96.13536 892.6557,98.02567 892.0118,100.35222 L 863.6363,206.06441 H 837.525 C 835.1154,206.06441 833.6613,204.1741 834.3052,201.84756 L 862.6807,96.13536 Z"
     id="path13102"
     style="fill:#ff5a19" />
  <path
     d="M 999.5789,96.13536 993.6587,117.84282 C 993.0355,120.16936 990.5636,122.0389 988.1539,122.0389 H 934.7266 L 930.1774,138.69859 H 982.6076 L 977.3106,158.51574 C 976.6874,160.84228 974.2362,162.71182 971.8058,162.71182 H 923.7378 L 919.0224,180.1401 H 977.7468 L 971.9512,201.84756 C 971.3488,204.1741 968.8769,206.06441 966.488,206.06441 H 886.3262 C 883.9166,206.06441 882.4625,204.1741 883.0857,201.84756 L 911.4819,96.13536 Z"
     id="path13106"
     style="fill:#ff5a19" />
  <path
     d="M 692.0539,148.89798 C 705.7223,148.89798 714.6754,143.08163 714.6754,133.6716 714.6754,130.68033 713.7198,128.33302 711.8503,126.27652 709.3368,123.76303 704.7668,122.51667 698.3273,122.51667 H 681.8545 L 674.6256,148.89798 Z M 629.8813,201.84756 658.2983,96.13536 H 699.7606 C 718.1236,96.13536 730.2133,100.2068 737.5876,107.60188 743.404,113.41823 746.0837,121.24953 746.0837,130.05715 746.0837,148.42021 735.5519,162.878 713.0966,169.00594 713.0966,169.00594 717.4173,179.74542 721.9666,183.27678 726.952,187.14049 732.3737,187.86754 735.0326,187.86754 L 730.2133,205.64896 C 730.2133,205.64896 724.667,207.37309 715.257,207.37309 706.0131,207.37309 694.6297,201.80601 689.4158,190.19408 687.297,185.43713 681.8545,172.7658 681.8545,172.7658 H 668.3315 L 659.3992,206.06441 H 633.1218 C 630.7122,206.06441 629.2581,204.1741 629.8813,201.84756"
     id="path13118"
     style="fill:#ff5a19" />
  <path
     d="M 560.6791,162.71805 581.2441,131.14357 585.1701,162.71805 Z M 574.9084,96.14159 498.9634,206.07065 H 527.7336 C 530.1433,206.07065 533.1968,204.4296 534.5263,202.43543 L 545.2865,186.44046 H 587.6836 L 589.7816,201.72915 C 590.0932,204.11801 592.3159,206.07065 594.7255,206.07065 H 622.3948 L 606.8152,105.32312 C 606.0259,100.25458 601.2274,96.14159 596.0965,96.14159 Z"
     id="path13122"
     style="fill:#ff5a19" />
  <path
     d="M 187.4396,48.3208 H 125.08 C 123.1689,48.3208 120.7593,49.6087 119.6791,51.1874 L 106.2599,71.08766 H 182.3295 C 185.3831,71.12921 188.2705,72.66639 188.6444,76.23929 189.0599,80.68464 184.3237,84.75609 179.9407,84.75609 H 145.9358 C 144.0039,84.75609 141.5943,86.044 140.5349,87.62272 L 127.0949,107.52296 H 176.0354 C 195.0839,107.52296 214.8803,90.92558 214.1533,72.64562 213.5924,58.2086 200.838,48.3208 187.4396,48.3208"
     id="path13126"
     style="fill:#ff5a19" />
  <path
     d="M 85.7511,71.0835 H 0.5 L 13.9192,51.204 C 14.9993,49.6045 17.409,48.3166 19.3201,48.3166 H 104.5712 L 91.152,68.21687 C 90.0926,69.81637 87.6622,71.0835 85.7511,71.0835"
     id="path13130"
     style="fill:#ff5a19" />
  <path
     d="M 36.4076,136.69819 41.85,84.7457 H 67.1927 L 61.688,137.17596 95.1112,87.61233 C 96.1914,86.03361 98.601,84.7457 100.5121,84.7457 H 124.9408 L 86.9683,141.06045 C 85.8881,142.68072 83.4785,143.94786 81.5674,143.94786 H 42.9302 C 38.9003,143.94786 35.9921,140.70732 36.4076,136.69819"
     id="path13134"
     style="fill:#ff5a19" />
  <path
     d="M 182.5518,143.94785 H 102.5354 L 115.9546,124.04762 C 117.0347,122.46889 119.4444,121.18099 121.3347,121.18099 H 201.3719 L 187.9319,141.06045 C 186.8725,142.68072 184.4629,143.94785 182.5518,143.94785"
     id="path13138"
     style="fill:#ff5a19" />
  <path
     d="M 161.9328,239.57284 H 180.6282 L 341.8658,0.5 H 323.1912 Z"
     style="fill:#a7a9ac;fill-opacity:1;fill-rule:nonzero;stroke:none;stroke-width:20.7727"
     id="path13142" />
</svg>
